<?xml version="1.0" standalone="no"?>
<!DOCTYPE svg PUBLIC "-//W3C//DTD SVG 20010904//EN"
 "http://www.w3.org/TR/2001/REC-SVG-20010904/DTD/svg10.dtd">
<svg version="1.0" xmlns="http://www.w3.org/2000/svg"
 width="900.000000pt" height="900.000000pt" viewBox="0 0 900.000000 900.000000"
 preserveAspectRatio="xMidYMid meet">
<metadata>
Created by potrace 1.14, written by Peter Selinger 2001-2017
</metadata>
<g transform="translate(0.000000,900.000000) scale(0.100000,-0.100000)"
fill="#000000" stroke="none">
<path d="M1690 8993 c-95 -11 -288 -57 -395 -93 -645 -223 -1116 -759 -1263
-1440 l-27 -125 0 -2835 0 -2835 27 -125 c168 -777 753 -1355 1529 -1512 l114
-23 2825 0 2825 0 114 23 c782 159 1374 751 1533 1533 l23 114 0 2825 0 2825
-23 114 c-157 774 -729 1355 -1507 1529 l-120 27 -2810 1 c-1545 0 -2826 -1
-2845 -3z m3220 -1168 c399 -53 726 -153 1085 -330 333 -163 621 -371 891
-640 552 -551 881 -1229 980 -2020 24 -192 24 -548 0 -745 -93 -765 -414
-1436 -951 -1988 l-151 -155 -149 173 c-167 195 -201 241 -249 344 -50 107
-121 437 -147 686 -14 136 -7 412 14 525 46 243 130 483 297 843 106 229 153
380 190 607 42 253 36 497 -16 705 -129 510 -522 955 -1094 1239 -245 122
-500 197 -785 232 -143 18 -481 15 -649 -5 -408 -50 -754 -141 -1002 -266
-350 -175 -582 -426 -745 -805 -66 -152 -189 -524 -196 -590 -3 -31 3 -103 17
-183 17 -102 21 -159 18 -242 -5 -133 -11 -145 -219 -490 -199 -331 -265 -449
-279 -497 -34 -113 47 -202 241 -268 177 -61 219 -117 199 -265 -9 -63 -8 -89
7 -165 16 -78 22 -90 41 -93 12 -2 22 -4 22 -5 0 -1 -14 -29 -30 -61 -17 -32
-30 -68 -30 -80 1 -29 33 -98 54 -115 28 -23 63 -102 75 -166 6 -32 11 -109
11 -170 0 -286 88 -376 394 -406 113 -11 166 -9 547 23 256 21 264 15 379
-297 162 -437 230 -666 230 -776 0 -30 -53 -186 -73 -213 -11 -15 -24 -14
-155 19 -517 130 -998 379 -1392 720 -660 572 -1064 1343 -1161 2215 -17 148
-17 542 0 690 88 794 434 1511 995 2063 564 556 1297 895 2086 966 145 13 560
5 700 -14z m685 -944 c20 -4 31 -13 32 -26 1 -11 5 -63 8 -116 l7 -96 35 -17
35 -17 96 60 c111 68 102 70 171 -29 l41 -58 -76 -83 c-71 -79 -75 -86 -69
-119 3 -19 12 -40 19 -45 8 -6 58 -21 111 -34 l98 -24 -6 -76 c-8 -116 -2
-110 -129 -113 l-109 -3 -21 -36 -20 -36 56 -90 c31 -49 56 -94 56 -99 0 -22
-121 -119 -140 -112 -5 2 -45 36 -89 76 l-81 73 -39 -12 c-37 -11 -42 -16 -55
-63 -8 -28 -22 -77 -31 -110 l-17 -59 -67 7 c-103 11 -108 13 -115 54 -3 20
-6 71 -6 112 l0 75 -37 21 -37 21 -93 -59 c-64 -39 -99 -56 -109 -50 -14 8
-104 122 -104 132 0 3 34 43 75 88 41 45 75 85 75 89 0 3 -5 22 -11 43 -11 36
-11 37 -120 65 -123 33 -115 22 -98 140 l11 75 119 0 118 0 16 30 c8 16 15 34
15 40 0 5 -25 51 -56 101 l-56 91 28 29 c16 17 49 44 74 60 l44 29 77 -76 78
-77 43 9 43 9 30 107 30 108 60 -1 c33 -1 74 -4 90 -8z m-1481 -56 c38 -13 73
-28 77 -32 4 -4 -1 -53 -12 -108 -25 -132 -25 -137 12 -159 17 -10 61 -47 98
-81 l66 -63 105 39 c58 21 110 39 115 39 16 0 74 -94 111 -178 l32 -76 -86
-64 c-48 -34 -92 -66 -99 -70 -9 -5 -8 -23 2 -72 8 -36 14 -93 15 -128 l0 -63
102 -49 c56 -28 103 -52 106 -55 7 -7 -29 -145 -55 -212 -28 -71 -26 -70 -130
-49 -149 30 -137 31 -168 -16 -16 -24 -53 -69 -83 -100 l-55 -57 42 -113 41
-113 -22 -18 c-24 -18 -217 -117 -230 -117 -5 0 -40 43 -79 96 -65 88 -74 95
-98 89 -14 -3 -71 -8 -126 -12 l-100 -5 -44 -94 c-64 -136 -52 -128 -144 -104
-60 15 -197 67 -197 74 0 0 9 47 20 104 26 132 26 134 -11 156 -17 10 -61 47
-98 81 l-66 63 -104 -39 c-57 -21 -109 -39 -115 -39 -17 0 -73 88 -110 174
l-34 79 96 70 c53 39 98 71 99 71 1 1 -5 30 -12 66 -8 36 -14 93 -15 128 l0
63 -105 50 c-58 28 -105 56 -105 62 1 24 39 161 60 213 12 30 28 54 36 54 7 0
60 -9 116 -20 57 -11 106 -20 109 -20 4 0 19 19 34 43 16 23 53 68 83 99 l55
57 -42 112 -41 111 23 19 c22 19 215 119 229 119 4 0 40 -43 79 -96 65 -88 73
-95 97 -90 15 4 72 10 127 13 l100 6 52 108 51 108 63 -15 c35 -8 94 -26 133
-39z m1176 -1321 l45 -175 67 -23 67 -22 135 123 136 124 46 -32 c26 -18 78
-58 115 -91 l68 -58 -94 -159 -94 -159 32 -56 32 -55 182 -1 182 0 10 -37 c16
-60 31 -164 31 -215 0 -46 -1 -47 -37 -57 -21 -5 -101 -26 -178 -47 l-141 -36
-12 -47 c-7 -25 -15 -55 -18 -66 -4 -16 23 -50 124 -156 l129 -134 -37 -55
c-21 -30 -62 -82 -92 -114 l-53 -59 -154 92 c-84 50 -156 91 -159 91 -4 0 -30
-12 -58 -27 l-51 -27 -7 -185 c-3 -101 -7 -186 -9 -187 -10 -10 -170 -34 -224
-34 l-69 0 -42 173 -43 172 -67 22 c-64 21 -68 21 -87 5 -11 -10 -72 -66 -136
-125 l-117 -108 -78 60 c-44 32 -94 75 -113 95 l-34 35 92 155 91 155 -31 56
-31 55 -62 0 c-35 0 -117 3 -184 7 l-121 6 -16 71 c-9 39 -17 105 -18 146 l-2
74 173 41 173 40 23 67 24 67 -125 136 -125 135 45 63 c25 35 65 85 89 111
l43 48 152 -91 c83 -50 156 -91 162 -91 6 0 33 12 61 28 l50 27 0 192 0 192
73 15 c97 21 114 23 172 25 l50 1 45 -176z"/>
<path d="M5413 6519 c-60 -11 -96 -33 -136 -80 -93 -108 -89 -247 8 -345 59
-59 116 -80 199 -71 135 14 227 116 226 253 -2 159 -141 274 -297 243z"/>
<path d="M3619 6336 c-208 -58 -359 -256 -359 -472 0 -238 186 -448 428 -485
323 -48 606 256 539 577 -40 187 -175 332 -352 379 -70 18 -192 18 -256 1z"/>
<path d="M5130 5037 c-113 -33 -206 -107 -260 -209 -85 -159 -30 -390 119
-500 200 -147 485 -70 594 160 29 61 32 76 32 162 0 86 -3 101 -32 162 -64
136 -192 225 -335 234 -43 2 -91 -1 -118 -9z"/>
</g>
</svg>
