<?xml version="1.0" encoding="utf-8"?>
<!-- Generator: Adobe Illustrator 26.0.1, SVG Export Plug-In . SVG Version: 6.00 Build 0)  -->
<svg version="1.1" id="Layer_1" xmlns="http://www.w3.org/2000/svg" xmlns:xlink="http://www.w3.org/1999/xlink" x="0px" y="0px"
	 viewBox="0 0 60 76" style="enable-background:new 0 0 60 76;" xml:space="preserve">
<style type="text/css">
	.st0{fill:#33B9CB;}
	.st1{fill:#2570A2;}
</style>
<path class="st0" d="M60,22v50c0,2.2-1.8,4-4,4H4c-2.2,0-4-1.8-4-4V4c0-2.2,1.8-4,4-4h34l6,16L60,22z"/>
<path class="st1" d="M38,0v18c0,2.2,1.8,4,4,4h18L38,0z"/>
<path class="st1" d="M47,38H13c-0.6,0-1-0.4-1-1v-2c0-0.6,0.4-1,1-1h34c0.6,0,1,0.4,1,1v2C48,37.6,47.6,38,47,38z"/>
<path class="st1" d="M43,46H13c-0.6,0-1-0.4-1-1v-2c0-0.6,0.4-1,1-1h30c0.6,0,1,0.4,1,1v2C44,45.6,43.6,46,43,46z"/>
<path class="st1" d="M47,54H13c-0.6,0-1-0.4-1-1v-2c0-0.6,0.4-1,1-1h34c0.6,0,1,0.4,1,1v2C48,53.6,47.6,54,47,54z"/>
<path class="st1" d="M43,62H13c-0.6,0-1-0.4-1-1v-2c0-0.6,0.4-1,1-1h30c0.6,0,1,0.4,1,1v2C44,61.6,43.6,62,43,62z"/>
</svg>
