<?xml version="1.0" encoding="utf-8"?>
<!-- Generator: Adobe Illustrator 26.0.1, SVG Export Plug-In . SVG Version: 6.00 Build 0)  -->
<svg version="1.1" id="Layer_1" xmlns="http://www.w3.org/2000/svg" xmlns:xlink="http://www.w3.org/1999/xlink" x="0px" y="0px"
	 viewBox="0 0 84 68" style="enable-background:new 0 0 84 68;" xml:space="preserve">
<style type="text/css">
	.st0{fill:url(#SVGID_1_);}
	.st1{fill:url(#SVGID_00000179647672614721398800000013658939596926037666_);}
</style>
<linearGradient id="SVGID_1_" gradientUnits="userSpaceOnUse" x1="-110.5" y1="250.792" x2="-110.5" y2="242.523" gradientTransform="matrix(2 0 0 -2 263 501)">
	<stop  offset="0" style="stop-color:#EBA600"/>
	<stop  offset="1" style="stop-color:#C28200"/>
</linearGradient>
<path class="st0" d="M42.8,6.8l-5.1-5.1C36.6,0.6,35.1,0,33.5,0H4C1.8,0,0,1.8,0,4v60c0,2.2,1.8,4,4,4h76c2.2,0,4-1.8,4-4V12
	c0-2.2-1.8-4-4-4H45.7C44.6,8,43.6,7.6,42.8,6.8z"/>
<linearGradient id="SVGID_00000097497744927038906870000002495008366290166407_" gradientUnits="userSpaceOnUse" x1="-110.5" y1="246.646" x2="-110.5" y2="216.517" gradientTransform="matrix(2 0 0 -2 263 501)">
	<stop  offset="0" style="stop-color:#FFD869"/>
	<stop  offset="1" style="stop-color:#FEC52B"/>
</linearGradient>
<path style="fill:url(#SVGID_00000097497744927038906870000002495008366290166407_);" d="M37.2,14.8l6.5-6.5C43.9,8.1,44.1,8,44.4,8
	H80c2.2,0,4,1.8,4,4v52c0,2.2-1.8,4-4,4H4c-2.2,0-4-1.8-4-4V17c0-0.6,0.4-1,1-1h33.3C35.4,16,36.4,15.6,37.2,14.8z"/>
</svg>
