<?xml version="1.0" encoding="utf-8"?>
<!-- Generator: Adobe Illustrator 26.0.1, SVG Export Plug-In . SVG Version: 6.00 Build 0)  -->
<svg version="1.1" id="Layer_1" xmlns="http://www.w3.org/2000/svg" xmlns:xlink="http://www.w3.org/1999/xlink" x="0px" y="0px"
	 viewBox="0 0 666.7 666.7" style="enable-background:new 0 0 666.7 666.7;" xml:space="preserve">
<style type="text/css">
	.st0{fill:none;stroke:#FFFFFF;stroke-width:66.6667;stroke-linecap:round;stroke-linejoin:round;stroke-miterlimit:133.3333;}
</style>
<path class="st0" d="M633.3,100l-66.7,233.3H179.2 M600,466.7H200L133.3,33.3h-100 M300,133.3l66.7,66.7L500,66.7 M233.3,600
	c0,18.4-14.9,33.3-33.3,33.3s-33.3-14.9-33.3-33.3c0-18.4,14.9-33.3,33.3-33.3S233.3,581.6,233.3,600z M600,600
	c0,18.4-14.9,33.3-33.3,33.3s-33.3-14.9-33.3-33.3c0-18.4,14.9-33.3,33.3-33.3S600,581.6,600,600z"/>
</svg>
