<?xml version="1.0" encoding="utf-8"?>
<!-- Generator: Adobe Illustrator 26.0.1, SVG Export Plug-In . SVG Version: 6.00 Build 0)  -->
<svg version="1.1" id="Layer_1" xmlns="http://www.w3.org/2000/svg" xmlns:xlink="http://www.w3.org/1999/xlink" x="0px" y="0px"
	 viewBox="0 0 683.4 650" style="enable-background:new 0 0 683.4 650;" xml:space="preserve">
<style type="text/css">
	.st0{fill:none;stroke:#FFFFFF;stroke-width:50;stroke-linecap:round;stroke-miterlimit:133.3333;}
	.st1{fill:#FFFFFF;stroke:#FFFFFF;stroke-miterlimit:10;}
</style>
<path class="st0" d="M368.6,534.9l-168.9,56.3C107.4,622,61.3,637.3,37,613c-24.3-24.3-9-70.4,21.8-162.6l56.3-168.9
	c25.5-76.6,38.3-114.9,68.5-122c30.2-7.1,58.8,21.4,115.9,78.5l112.6,112.6c57.1,57.1,85.6,85.6,78.5,115.9"/>
<path class="st0" d="M332.9,536.5c0,0-25.3-76-25.3-126.4c0-50.3,25.3-126.4,25.3-126.4 M193.9,574.4c0,0-21.3-91.7-25.3-151.6
	c-6.5-99,25.3-252.7,25.3-252.7"/>
<path class="st0" d="M408.7,258.5l4.8-24c4.8-24.2,22.3-44,45.7-51.8c23.4-7.8,40.9-27.6,45.7-51.8l4.8-24"/>
<path class="st0" d="M510.7,333.4l7.1,4.1c21.9,12.6,49.4,9.9,68.4-6.9c17.1-15.2,41.5-19,62.5-9.9l9.7,4.2"/>
<path class="st0" d="M276.2,25c-11.3,18.4-8.4,42.1,6.8,57.4l3.3,3.3c13.1,13.1,17.9,32.4,12.6,50.1"/>
<path class="st1" d="M377.1,71.5c6.7-6.7,10.1-10.1,13.9-11.3c3.3-1,6.8-1,10.1,0c3.9,1.2,7.2,4.6,13.9,11.3
	c6.7,6.7,10,10.1,11.3,13.9c1,3.3,1,6.8,0,10.1c-1.2,3.9-4.6,7.2-11.3,13.9c-6.7,6.7-10.1,10.1-13.9,11.3c-3.3,1-6.8,1-10.1,0
	c-3.9-1.2-7.2-4.6-13.9-11.3c-6.7-6.7-10.1-10.1-11.3-13.9c-1-3.3-1-6.8,0-10.1C367,81.6,370.4,78.3,377.1,71.5z"/>
<path class="st1" d="M574,173.9c8.2-8.2,12.3-12.3,16.9-14c5.4-2.1,11.4-2.1,16.8,0c4.6,1.8,8.7,5.9,16.9,14
	c8.2,8.2,12.3,12.3,14,16.9c2.1,5.4,2.1,11.4,0,16.8c-1.8,4.6-5.9,8.7-14,16.9c-8.2,8.2-12.3,12.3-16.9,14c-5.4,2.1-11.4,2.1-16.8,0
	c-4.6-1.8-8.7-5.9-16.9-14c-8.2-8.2-12.3-12.3-14-16.9c-2.1-5.4-2.1-11.4,0-16.8C561.7,186.2,565.8,182.1,574,173.9z"/>
<path class="st1" d="M155.9,56.4c7-7,18.3-7,25.3,0c7,7,7,18.3,0,25.3c-7,7-18.3,7-25.3,0C149,74.7,149,63.3,155.9,56.4z"/>
<path class="st1" d="M560.3,435.4c7-7,18.3-7,25.3,0c7,7,7,18.3,0,25.3c-7,7-18.3,7-25.3,0C553.3,453.7,553.3,442.4,560.3,435.4z"/>
<path class="st1" d="M508.4,249.7c7-7,18.3-7,25.3,0c7,7,7,18.3,0,25.3c-7,7-18.3,7-25.3,0C501.4,268,501.4,256.7,508.4,249.7z"/>
</svg>
