<?xml version="1.0" encoding="utf-8"?>
<!-- Generator: Adobe Illustrator 26.0.1, SVG Export Plug-In . SVG Version: 6.00 Build 0)  -->
<svg version="1.1" id="Layer_1" xmlns="http://www.w3.org/2000/svg" xmlns:xlink="http://www.w3.org/1999/xlink" x="0px" y="0px"
	 viewBox="0 0 628.2 685.6" style="enable-background:new 0 0 628.2 685.6;" xml:space="preserve">
<style type="text/css">
	.st0{fill:#FFFFFF;}
</style>
<path class="st0" d="M485.3,399.7c-78.9,0-142.9,64-142.9,142.9s64,142.9,142.9,142.9s142.9-64,142.9-142.9S564.2,399.7,485.3,399.7
	z M485.3,628.3c-47.3,0-85.7-38.5-85.7-85.7c0-47.3,38.5-85.7,85.7-85.7c47.3,0,85.7,38.5,85.7,85.7
	C571,589.8,532.6,628.3,485.3,628.3z"/>
<path class="st0" d="M428,521.1h114.3V564H428V521.1z M85.6,314.2H257v57.1H85.6V314.2z"/>
<path class="st0" d="M56.8,229h457.5v140.2h57.1V56.6C571.4,25.4,546,0,514.8,0h-21.4c-22.8,0-43,13.1-51.5,33.3
	c-4.5,10.6-21.8,10.7-26.2,0C407.3,13.1,387.1,0,364.3,0h-14.2c-22.8,0-43,13.1-51.5,33.3c-4.5,10.6-21.8,10.7-26.2,0
	C263.9,13.1,243.7,0,220.9,0h-13.6c-22.8,0-43,13.1-51.5,33.3c-4.5,10.6-21.8,10.7-26.2,0C121.2,13.1,101,0,78.2,0H56.6
	C25.4,0,0,25.4,0,56.6v629h313.4v-57.1H57.1L56.8,229z M76.9,55.4c11.1,26.6,37,43.8,65.8,43.8c28.8,0,54.6-17.2,64.6-42l12.4-1.8
	c11.1,26.6,37,43.8,65.8,43.8c28.8,0,54.6-17.2,64.6-42l13-1.8c11.1,26.6,37,43.8,65.8,43.8c28.8,0,54.6-17.2,64.6-42l20.8-0.5
	v115.2H56.7L56.6,57.1L76.9,55.4L76.9,55.4z"/>
</svg>
