<?xml version="1.0" encoding="utf-8"?>
<!-- Generator: Adobe Illustrator 26.0.1, SVG Export Plug-In . SVG Version: 6.00 Build 0)  -->
<svg version="1.1" id="Layer_1" xmlns="http://www.w3.org/2000/svg" xmlns:xlink="http://www.w3.org/1999/xlink" x="0px" y="0px"
	 viewBox="0 0 628.2 686.7" style="enable-background:new 0 0 628.2 686.7;" xml:space="preserve">
<style type="text/css">
	.st0{fill:#FFFFFF;}
</style>
<path class="st0" d="M485.3,401c-78.9,0-142.9,64-142.9,142.9s64,142.9,142.9,142.9s142.9-64,142.9-142.9S564.2,401,485.3,401z
	 M485.3,629.5c-47.3,0-85.7-38.5-85.7-85.7s38.5-85.7,85.7-85.7c47.3,0,85.7,38.5,85.7,85.7S532.6,629.5,485.3,629.5z"/>
<path class="st0" d="M506.8,484.6h-42.9v68.2l54.2,53.7l30.2-30.4l-41.5-41.2V484.6z M85.6,314.2H257v57.1H85.6V314.2z"/>
<path class="st0" d="M56.8,229h457.5v140.2h57.1V56.6c0-31.2-25.4-56.6-56.6-56.6h-21.4c-22.8,0-43,13.1-51.5,33.3
	c-4.5,10.7-21.7,10.7-26.2,0C407.3,13.1,387.1,0,364.3,0h-14.2c-22.8,0-43,13.1-51.5,33.3c-4.5,10.7-21.7,10.7-26.2,0
	C263.9,13.1,243.7,0,220.9,0h-13.6c-22.8,0-43,13.1-51.5,33.3c-4.5,10.7-21.7,10.7-26.2,0C121.1,13.1,101,0,78.2,0H56.6
	C25.4,0,0,25.4,0,56.6v629h313.4v-57.1H57.1L56.8,229L56.8,229z M77,55.3c11.1,26.6,37,43.8,65.8,43.8c28.8,0,54.7-17.2,64.6-42
	l12.4-1.8c11.1,26.6,37,43.8,65.8,43.8c28.8,0,54.7-17.2,64.6-42l13-1.8c11.1,26.6,37,43.8,65.8,43.8c28.8,0,54.7-17.2,64.6-42
	l20.8-0.5v115.2H56.7L56.6,57.2L77,55.3L77,55.3z"/>
</svg>
