<?xml version="1.0" encoding="UTF-8" standalone="no"?>
<!DOCTYPE svg PUBLIC "-//W3C//DTD SVG 1.1//EN" "http://www.w3.org/Graphics/SVG/1.1/DTD/svg11.dtd">
<!-- Created with Vectornator (http://vectornator.io/) -->
<svg height="100%" stroke-miterlimit="10" style="fill-rule:nonzero;clip-rule:evenodd;stroke-linecap:round;stroke-linejoin:round;" version="1.1" viewBox="0 0 6315.65 1137.19" width="100%" xml:space="preserve" xmlns="http://www.w3.org/2000/svg" xmlns:xlink="http://www.w3.org/1999/xlink">
<defs>
<path d="M238.031 0C106.577 2.03451e-05-2.0345e-05 106.547 0 238.001L0 899.189C4.06901e-05 1030.64 106.577 1137.19 238.031 1137.19L899.187 1137.19C1030.64 1137.19 1137.19 1030.64 1137.19 899.189L1137.19 238.001C1137.19 106.546 1030.64 2.03451e-05 899.187 0L238.031 0ZM568.594 136.25C807.366 136.25 1000.94 329.822 1000.94 568.595C1000.94 696.813 945.097 811.951 856.437 891.127C851.558 885.383 819.35 847.403 808.187 829.814C796.169 810.876 788.515 778.949 785.625 702.189C781.992 605.713 854.213 569.627 851.75 434.876C849.203 295.482 692.402 211.371 585.062 210.657C581.6 210.634 578.166 210.693 574.812 210.844C502.54 214.109 410.943 214.618 341.25 294.126C303.091 337.658 283.192 418.522 282.906 422.907C282.571 428.05 286.251 435.902 286.562 438.595C288.601 456.204 290.174 476.277 288.937 484.751C285.313 509.607 221.402 581.752 226.5 609.314C230.967 633.462 287.071 625.931 282.125 659.595C280.968 667.468 279.474 687.714 282.312 691.283C290.979 702.182 296.812 702.189 296.812 702.189C296.812 702.189 281.27 710.685 282.094 717.877C282.917 725.068 297.881 736.419 299.469 745.095C301.056 753.772 299.379 780.121 302.469 793.47C305.558 806.82 309.341 811.606 324.937 820.189C351.501 834.808 431.026 812.378 446.781 823.127C466.288 836.437 497.499 950.485 495.75 959.815C494.313 967.478 486.561 985.281 483.375 992.502C285.423 952.919 136.25 778.19 136.25 568.595C136.25 329.822 329.821 136.25 568.594 136.25ZM690.812 257.907L711.531 259.907L713.406 284.813C719.131 286.879 724.429 289.686 729.156 293.251L750.75 280.719L763.968 296.751L747.625 315.782C750.154 321.122 751.902 326.8 752.781 332.782L777 339.219L775 359.876L749.937 361.813C747.922 367.482 745.121 372.768 741.625 377.501L754.187 399.095L738.156 412.313L719.156 395.97C713.843 398.544 708.068 400.347 702.094 401.251L695.344 425.313L674.719 423.313L673 398.501C667.246 396.472 661.987 393.62 657.219 390.095L635.562 402.313L622.375 386.22L638.687 367.595C636.111 362.189 634.316 356.461 633.437 350.438L609.562 343.72L611.594 323.032L636.281 321.376C638.347 315.611 641.223 310.284 644.781 305.532L632.562 283.907L648.656 270.751L667.344 287.063C672.708 284.526 678.442 282.773 684.469 281.907L690.812 257.907ZM500.031 262.844C501.018 262.811 502.045 262.945 503.031 263.251L524 269.751C527.944 270.974 530.54 274.697 530.312 278.813L528.969 302.844C537.496 308.068 545.067 314.473 551.594 321.719L575.031 316.001C576.609 315.615 578.263 315.677 579.812 316.157C582.104 316.868 583.973 318.411 585.094 320.532L595.312 339.876C597.243 343.542 596.439 348.052 593.344 350.813L575.406 366.876C577.69 376.363 578.641 386.227 578.125 396.22L598.687 408.751C602.214 410.894 603.821 415.152 602.594 419.095L596.094 440.001C594.862 443.928 591.133 446.541 587.031 446.313L563.031 444.938C557.799 453.492 551.418 461.112 544.156 467.657L549.844 491.064C550.836 495.083 548.979 499.227 545.312 501.157L525.906 511.376C523.782 512.491 521.353 512.712 519.062 512.001C517.513 511.521 516.114 510.618 515.031 509.407L498.969 491.439C489.481 493.723 479.617 494.705 469.625 494.189L457.094 514.751C454.946 518.277 450.694 519.88 446.75 518.657L425.781 512.157C421.837 510.934 419.214 507.182 419.437 503.064L420.812 479.032C412.284 473.809 404.683 467.434 398.156 460.189L374.75 465.907C373.172 466.293 371.518 466.232 369.969 465.751C367.677 465.041 365.805 463.492 364.687 461.376L354.469 441.97C352.537 438.308 353.342 433.825 356.437 431.063L374.375 415.001C372.095 405.515 371.141 395.676 371.656 385.688L351.094 373.157C347.568 371.01 345.964 366.757 347.187 362.813L353.656 341.876C354.887 337.953 358.615 335.371 362.719 335.594L386.75 336.969C391.981 328.416 398.363 320.796 405.625 314.251L399.937 290.844C398.945 286.825 400.808 282.678 404.469 280.751L423.906 270.532C426.026 269.416 428.458 269.196 430.75 269.907C432.299 270.388 433.697 271.294 434.781 272.501L450.812 290.438C460.298 288.158 470.168 287.204 480.156 287.719L492.687 267.157C494.298 264.512 497.071 262.946 500.031 262.844ZM661.344 413.282L672.906 450.813C682.399 451.916 691.517 454.448 700.031 458.22L728.719 431.47L754.562 451.438L736.156 486.345C741.89 493.618 746.564 501.757 750 510.595L789.375 512.001L793.5 544.407L755.781 556.001C754.703 565.445 752.195 574.508 748.468 583.001L775.343 611.751L755.343 637.595L720.531 619.22C713.279 624.998 705.084 629.782 696.219 633.251L694.281 672.501L661.875 676.626L650.656 639.158C641.165 638.07 632.06 635.548 623.5 631.783L594.562 658.064L568.75 638.064L587.219 603.751C581.398 596.412 576.656 588.21 573.187 579.251L534.312 577.376L530.187 544.939L567.437 533.782C568.563 524.224 571.109 515.093 574.875 506.532L548.656 477.657L568.687 451.845L603.094 470.314C610.397 464.575 618.599 459.887 627.531 456.47L628.875 417.407L661.344 413.282Z" id="Fill"/>
<linearGradient gradientTransform="matrix(0.901885 0 0 0.901887 -1730.28 -1748.55)" gradientUnits="userSpaceOnUse" id="LinearGradient" x1="1922.44" x2="3004.44" y1="1941.1" y2="3014.74">
<stop offset="0" stop-color="#495ea2"/>
<stop offset="1" stop-color="#28b2eb"/>
</linearGradient>
<path d="M665.312 499.501C662.294 499.273 659.213 499.354 656.094 499.751C631.123 502.93 613.51 525.765 616.687 550.72C619.866 575.69 642.623 593.305 667.594 590.126C692.549 586.949 710.241 564.159 707.062 539.189C704.283 517.353 686.443 501.097 665.312 499.501Z" id="Fill_2"/>
<linearGradient gradientTransform="matrix(0.901885 0 0 0.901887 -1730.28 -1748.55)" gradientUnits="userSpaceOnUse" id="LinearGradient_2" x1="1922.44" x2="3004.44" y1="1941.1" y2="3014.74">
<stop offset="0" stop-color="#495ea2"/>
<stop offset="1" stop-color="#28b2eb"/>
</linearGradient>
<path d="M696.094 312.782C692.115 312.395 688.218 312.878 684.625 314.001C673.846 317.368 665.571 326.854 664.406 338.782C662.869 354.735 674.534 368.917 690.438 370.47C706.366 372.015 720.576 360.386 722.125 344.47C723.67 328.541 712.014 314.343 696.094 312.782Z" id="Fill_3"/>
<linearGradient gradientTransform="matrix(0.901885 0 0 0.901887 -1730.28 -1748.55)" gradientUnits="userSpaceOnUse" id="LinearGradient_3" x1="1922.44" x2="3004.44" y1="1941.1" y2="3014.74">
<stop offset="0" stop-color="#495ea2"/>
<stop offset="1" stop-color="#28b2eb"/>
</linearGradient>
<path d="M474.875 329.001C440.668 329.001 412.938 356.731 412.938 390.938C412.938 425.145 440.668 452.876 474.875 452.876C509.082 452.876 536.812 425.146 536.812 390.938C536.813 356.731 509.082 329.001 474.875 329.001Z" id="Fill_4"/>
<linearGradient gradientTransform="matrix(0.901885 0 0 0.901887 -1730.28 -1748.55)" gradientUnits="userSpaceOnUse" id="LinearGradient_4" x1="1922.44" x2="3004.44" y1="1941.1" y2="3014.74">
<stop offset="0" stop-color="#495ea2"/>
<stop offset="1" stop-color="#28b2eb"/>
</linearGradient>
<path d="M6151.81 291.054L6227.84 291.054L6227.84 438.245L6311.37 438.245L6311.37 512.15L6227.84 512.15L6227.84 678.822C6227.84 697.788 6233.67 707.271 6245.33 707.271C6253.66 707.271 6265.68 699.437 6281.38 683.77L6315.65 717.475C6304.47 734.792 6289 749.686 6269.25 762.158C6249.49 774.631 6224.75 780.867 6195 780.867C6168.11 780.867 6147.58 775.867 6133.42 765.869C6119.27 755.871 6109.57 740.873 6104.33 720.877C6099.1 700.88 6096.48 674.39 6096.48 641.406L6096.48 512.15L6026.87 512.15L6026.87 438.245C6050.67 437.008 6071.31 431.288 6088.81 421.083C6106.3 410.879 6120.57 394.902 6131.64 373.154C6142.71 351.405 6149.43 324.038 6151.81 291.054Z" id="Fill_5"/>
<linearGradient gradientTransform="matrix(1 0 0 1 -162 -1659.48)" gradientUnits="userSpaceOnUse" id="LinearGradient_5" x1="1366.18" x2="6477.65" y1="2234.89" y2="2234.89">
<stop offset="0" stop-color="#256ea0"/>
<stop offset="1" stop-color="#1797d6"/>
</linearGradient>
<path d="M3645.99 680.678L3771.64 680.678C3772.59 697.994 3786.51 706.653 3813.4 706.653C3841.72 706.653 3855.88 700.777 3855.88 689.027C3855.88 680.781 3850.11 674.029 3838.57 668.773C3827.02 663.516 3812.33 658.413 3794.48 653.466C3749.03 640.272 3714.52 625.533 3690.96 609.247C3667.41 592.961 3655.63 569.048 3655.63 537.507C3655.63 516.892 3661.75 498.493 3674.01 482.31C3686.26 466.127 3704.71 453.552 3729.34 444.585C3753.97 435.617 3783.89 431.133 3819.11 431.133C3870.04 431.133 3909.36 437.885 3937.08 451.387C3964.81 464.89 3979.62 491.947 3981.53 532.559L3857.31 533.177C3856.35 530.085 3855.88 527.302 3855.88 524.828C3854.93 516.17 3850.4 510.656 3842.31 508.285C3834.22 505.914 3826.49 504.729 3819.11 504.729C3806.74 504.729 3797.69 506.584 3791.98 510.295C3786.27 514.005 3783.42 518.644 3783.42 524.21C3783.42 530.188 3785.56 534.93 3789.84 538.434C3794.12 541.939 3801.03 545.186 3810.54 548.175C3820.06 551.164 3832.73 554.359 3848.56 557.761C3864.38 561.162 3873.13 563.069 3874.8 563.481C3903.35 570.078 3928.4 580.747 3949.93 595.486C3971.47 610.226 3982.24 633.16 3982.24 664.289C3982.24 678.925 3978.37 694.799 3970.64 711.909C3962.9 729.02 3945.71 744.79 3919.06 759.221C3892.41 773.651 3853.26 780.867 3801.62 780.867C3762.12 780.867 3730.88 776.022 3707.92 766.333C3684.96 756.644 3669.01 744.378 3660.09 729.535C3651.16 714.692 3646.46 698.407 3645.99 680.678Z" id="Fill_6"/>
<linearGradient gradientTransform="matrix(1 0 0 1 -162 -1659.48)" gradientUnits="userSpaceOnUse" id="LinearGradient_6" x1="1366.18" x2="6477.65" y1="2234.89" y2="2234.89">
<stop offset="0" stop-color="#256ea0"/>
<stop offset="1" stop-color="#1797d6"/>
</linearGradient>
<path d="M4266.73 670.473L4390.95 670.473C4381.43 699.747 4362.28 725.464 4333.48 747.625C4304.69 769.786 4263.4 780.867 4209.62 780.867C4187.73 780.867 4162.03 777.104 4132.52 769.58C4103.01 762.055 4077.55 746.336 4056.13 722.423C4029.24 691.913 4015.79 653.878 4015.79 608.319C4015.79 587.086 4019.66 566.213 4027.39 545.701C4035.13 525.189 4045.66 507.512 4058.98 492.669C4078.97 470.199 4102.59 454.325 4129.84 445.048C4157.09 435.772 4185.11 431.133 4213.9 431.133C4250.79 431.133 4282.85 439.07 4310.1 454.944C4337.35 470.817 4358.17 493.7 4372.57 523.591C4386.97 553.483 4394.76 588.941 4395.95 629.965L4166.43 629.965L4166.43 645.735C4166.43 660.784 4167.97 672.638 4171.07 681.296C4174.16 689.954 4179.46 696.345 4186.95 700.468C4194.45 704.591 4204.86 706.653 4218.19 706.653C4245.79 706.653 4261.97 694.593 4266.73 670.473ZM4166.43 563.481L4266.73 563.481C4266.73 543.279 4262.15 528.436 4252.99 518.953C4243.83 509.47 4232.23 504.729 4218.19 504.729C4203.67 504.729 4191.41 509.779 4181.42 519.881C4171.43 529.982 4166.43 544.516 4166.43 563.481Z" id="Fill_7"/>
<linearGradient gradientTransform="matrix(1 0 0 1 -162 -1659.48)" gradientUnits="userSpaceOnUse" id="LinearGradient_7" x1="1366.18" x2="6477.65" y1="2234.89" y2="2234.89">
<stop offset="0" stop-color="#256ea0"/>
<stop offset="1" stop-color="#1797d6"/>
</linearGradient>
<path d="M4447.71 773.754L4447.71 707.271L4461.63 707.271C4470.67 707.271 4476.74 705.88 4479.83 703.096C4482.93 700.313 4484.47 694.902 4484.47 686.862L4484.47 524.828C4484.47 517.201 4482.93 511.944 4479.83 509.058C4476.74 506.172 4470.2 504.729 4460.2 504.729L4446.99 504.729L4446.99 438.245L4615.83 438.245L4615.83 455.871C4637.96 446.388 4657.48 439.895 4674.37 436.39C4691.27 432.885 4708.4 431.133 4725.78 431.133C4748.38 431.133 4766.65 433.298 4780.57 437.627C4794.49 441.956 4806.92 450.305 4817.87 462.674L4823.58 463.293C4832.86 457.108 4844.11 451.594 4857.31 446.749C4870.52 441.905 4884.38 438.091 4898.9 435.308C4913.41 432.525 4927.34 431.133 4940.66 431.133C4971.6 431.133 4995.22 435.823 5011.52 445.203C5027.82 454.583 5038.23 465.509 5042.75 477.981C5047.27 490.453 5049.53 504.007 5049.53 518.644L5049.53 686.862C5049.53 695.108 5051.38 700.571 5055.07 703.251C5058.75 705.931 5064.64 707.271 5072.73 707.271L5084.51 707.271L5084.51 773.754L4892.12 773.754L4892.12 707.271L4896.76 707.271C4904.13 707.271 4909.49 705.673 4912.82 702.478C4916.15 699.283 4917.82 694.077 4917.82 686.862L4917.82 556.679C4917.82 554.617 4917.58 552.04 4917.1 548.948C4916.63 545.856 4916.39 542.042 4916.39 537.507C4915.67 524.519 4910.74 515.809 4901.58 511.377C4892.41 506.945 4882.48 504.729 4871.77 504.729C4847.73 504.729 4834.88 517.819 4833.22 544C4833.22 548.329 4833.16 551.473 4833.04 553.432C4832.92 555.39 4832.74 557.503 4832.5 559.771L4832.5 686.862C4832.5 700.468 4838.81 707.271 4851.42 707.271L4857.13 707.271L4857.13 773.754L4676.52 773.754L4676.52 707.271L4682.58 707.271C4690.44 707.271 4695.43 705.416 4697.58 701.705C4699.72 697.994 4700.79 693.047 4700.79 686.862L4700.79 556.679C4700.79 522.045 4685.68 504.729 4655.46 504.729C4629.04 504.729 4615.83 518.644 4615.83 546.474L4615.83 559.771L4615.83 686.862C4615.83 693.047 4616.96 697.994 4619.22 701.705C4621.49 705.416 4626.78 707.271 4635.11 707.271L4641.53 707.271L4641.53 773.754L4447.71 773.754Z" id="Fill_8"/>
<linearGradient gradientTransform="matrix(1 0 0 1 -162 -1659.48)" gradientUnits="userSpaceOnUse" id="LinearGradient_8" x1="1366.18" x2="6477.65" y1="2234.89" y2="2234.89">
<stop offset="0" stop-color="#256ea0"/>
<stop offset="1" stop-color="#1797d6"/>
</linearGradient>
<path d="M5377.93 670.473L5502.15 670.473C5492.63 699.747 5473.48 725.464 5444.68 747.625C5415.89 769.786 5374.6 780.867 5320.82 780.867C5298.92 780.867 5273.22 777.104 5243.72 769.58C5214.21 762.055 5188.75 746.336 5167.33 722.423C5140.44 691.913 5126.99 653.878 5126.99 608.319C5126.99 587.086 5130.86 566.213 5138.59 545.701C5146.33 525.189 5156.86 507.512 5170.18 492.669C5190.17 470.199 5213.79 454.325 5241.04 445.048C5268.29 435.772 5296.31 431.133 5325.1 431.133C5361.99 431.133 5394.05 439.07 5421.3 454.944C5448.55 470.817 5469.37 493.7 5483.77 523.591C5498.16 553.483 5505.96 588.941 5507.15 629.965L5277.63 629.965L5277.63 645.735C5277.63 660.784 5279.17 672.638 5282.27 681.296C5285.36 689.954 5290.66 696.345 5298.15 700.468C5305.65 704.591 5316.06 706.653 5329.39 706.653C5356.99 706.653 5373.17 694.593 5377.93 670.473ZM5277.63 563.481L5377.93 563.481C5377.93 543.279 5373.35 528.436 5364.19 518.953C5355.03 509.47 5343.43 504.729 5329.39 504.729C5314.87 504.729 5302.61 509.779 5292.62 519.881C5282.62 529.982 5277.63 544.516 5277.63 563.481Z" id="Fill_9"/>
<linearGradient gradientTransform="matrix(1 0 0 1 -162 -1659.48)" gradientUnits="userSpaceOnUse" id="LinearGradient_9" x1="1366.18" x2="6477.65" y1="2234.89" y2="2234.89">
<stop offset="0" stop-color="#256ea0"/>
<stop offset="1" stop-color="#1797d6"/>
</linearGradient>
<path d="M5558.19 773.754L5558.19 707.271L5571.4 707.271C5579.49 707.271 5585.44 706.034 5589.25 703.56C5593.06 701.087 5594.96 695.52 5594.96 686.862L5594.96 524.828C5594.96 517.407 5593.53 512.202 5590.68 509.212C5587.82 506.223 5581.39 504.729 5571.4 504.729L5558.19 504.729L5558.19 438.245L5726.32 438.245L5726.32 463.293L5730.24 463.293C5764.75 441.853 5807.82 431.133 5859.46 431.133C5886.35 431.133 5906.4 436.287 5919.61 446.594C5932.82 456.902 5940.85 469.322 5943.7 483.856C5946.56 498.39 5947.99 517.51 5947.99 541.217L5947.99 686.862C5947.99 694.077 5949.65 699.283 5952.98 702.478C5956.32 705.673 5962.15 707.271 5970.48 707.271L5984.4 707.271L5984.4 773.754L5792.35 773.754L5792.35 707.271L5797.35 707.271C5805.21 707.271 5810.32 705.519 5812.7 702.014C5815.08 698.51 5816.27 693.459 5816.27 686.862L5816.27 546.474C5816.27 536.167 5813.53 526.632 5808.06 517.871C5802.59 509.109 5792 504.729 5776.29 504.729C5762.49 504.729 5750.71 507.409 5740.95 512.769C5731.2 518.128 5726.32 529.364 5726.32 546.474L5726.32 686.862C5726.32 693.459 5727.63 698.51 5730.24 702.014C5732.86 705.519 5739.17 707.271 5749.16 707.271L5752.02 707.271L5752.02 773.754L5558.19 773.754Z" id="Fill_10"/>
<linearGradient gradientTransform="matrix(1 0 0 1 -162 -1659.48)" gradientUnits="userSpaceOnUse" id="LinearGradient_10" x1="1366.18" x2="6477.65" y1="2234.89" y2="2234.89">
<stop offset="0" stop-color="#256ea0"/>
<stop offset="1" stop-color="#1797d6"/>
</linearGradient>
<path d="M3394.34 773.754L3394.34 707.271L3403.97 707.271C3410.16 707.271 3414.98 706.446 3418.43 704.797C3421.88 703.148 3424.14 700.88 3425.21 697.994C3426.28 695.108 3426.82 691.397 3426.82 686.862L3426.82 524.828C3426.82 518.025 3425.45 512.975 3422.71 509.676C3419.98 506.378 3413.73 504.729 3403.97 504.729L3391.48 504.729L3391.48 438.245L3594.94 438.245L3594.94 504.729L3581.74 504.729C3571.98 504.729 3565.61 506.275 3562.64 509.367C3559.66 512.459 3558.18 517.613 3558.18 524.828L3558.18 686.862C3558.18 690.573 3558.65 693.871 3559.61 696.757C3560.56 699.643 3561.75 701.705 3563.17 702.942C3564.6 704.179 3566.92 705.21 3570.14 706.034C3573.35 706.859 3577.22 707.271 3581.74 707.271L3594.94 707.271L3594.94 773.754L3394.34 773.754ZM3420.75 328.471C3420.75 312.391 3427.65 297.96 3441.45 285.179C3455.26 272.398 3472.51 266.007 3493.21 266.007C3514.63 266.007 3532.06 272.346 3545.51 285.024C3558.95 297.703 3565.67 312.185 3565.67 328.471C3565.67 340.84 3562.16 351.817 3555.14 361.403C3548.12 370.989 3539.08 378.462 3528.01 383.822C3516.95 389.182 3505.35 391.862 3493.21 391.862C3479.89 391.862 3467.63 388.769 3456.45 382.585C3445.26 376.4 3436.52 368.464 3430.21 358.775C3423.9 349.086 3420.75 338.984 3420.75 328.471Z" id="Fill_11"/>
<linearGradient gradientTransform="matrix(1 0 0 1 -162 -1659.48)" gradientUnits="userSpaceOnUse" id="LinearGradient_11" x1="1366.18" x2="6477.65" y1="2234.89" y2="2234.89">
<stop offset="0" stop-color="#256ea0"/>
<stop offset="1" stop-color="#1797d6"/>
</linearGradient>
<path d="M3149.82 438.245L3149.82 504.729L3127.69 504.729C3122.22 504.729 3118.29 505.193 3115.91 506.12C3113.53 507.048 3112.34 509.058 3112.34 512.15C3112.34 514.418 3114.84 521.221 3119.84 532.559L3161.96 620.997L3167.31 620.997L3205.86 535.651C3211.34 524.931 3214.07 517.304 3214.07 512.769C3214.07 510.501 3213.36 508.594 3211.93 507.048C3210.5 505.502 3208.24 504.729 3205.15 504.729L3183.38 504.729L3183.38 438.245L3357.21 438.245L3357.21 504.729L3333.3 504.729C3329.73 504.729 3326.51 505.966 3323.66 508.439C3320.8 510.913 3318.36 513.954 3316.34 517.562C3314.32 521.169 3312.06 525.911 3309.56 531.786C3307.06 537.661 3304.98 542.557 3303.31 546.474L3200.15 773.754L3087.35 773.754L2971.34 527.302C2968.01 519.881 2964.5 514.263 2960.81 510.449C2957.13 506.636 2950.88 504.729 2942.07 504.729L2921.73 504.729L2921.73 438.245L3149.82 438.245Z" id="Fill_12"/>
<linearGradient gradientTransform="matrix(1 0 0 1 -162 -1659.48)" gradientUnits="userSpaceOnUse" id="LinearGradient_12" x1="1366.18" x2="6477.65" y1="2234.89" y2="2234.89">
<stop offset="0" stop-color="#256ea0"/>
<stop offset="1" stop-color="#1797d6"/>
</linearGradient>
<path d="M2405.93 330.326L2658.3 330.326C2714.46 330.326 2760.44 338.778 2796.26 355.682C2832.07 372.587 2858.49 397.428 2875.5 430.206C2892.52 462.983 2901.02 503.389 2901.02 551.422C2901.02 585.849 2895.97 617.235 2885.85 645.581C2875.74 673.926 2859.02 699.128 2835.7 721.186C2822.61 733.349 2808.34 742.935 2792.87 749.944C2777.4 756.953 2760.32 762.21 2741.64 765.715C2722.96 769.219 2702.56 771.435 2680.43 772.363C2658.3 773.291 2632.36 773.754 2602.61 773.754L2405.93 773.754L2405.93 692.119L2433.77 692.119C2442.81 692.119 2449.36 690.779 2453.4 688.099C2457.45 685.419 2459.47 678.513 2459.47 667.381L2459.47 436.699C2459.47 425.773 2457.45 418.97 2453.4 416.29C2449.36 413.61 2442.81 412.271 2433.77 412.271L2405.93 412.271L2405.93 330.326ZM2612.25 455.871L2612.25 660.269C2612.25 669.133 2614.03 675.369 2617.6 678.977C2621.17 682.585 2628.19 684.388 2638.66 684.388L2670.79 684.388C2695.78 684.388 2712.02 675.679 2719.51 658.259C2727.01 640.839 2730.76 616.256 2730.76 584.509L2730.76 552.04L2730.76 538.125C2730.76 502.461 2729.21 476.95 2726.12 461.592C2723.02 446.234 2715.41 435.411 2703.27 429.123C2691.14 422.836 2670.55 419.692 2641.52 419.692C2629.38 419.692 2621.59 421.65 2618.14 425.567C2614.69 429.484 2612.96 434.947 2612.96 441.956L2612.96 447.522C2612.49 449.79 2612.25 452.573 2612.25 455.871Z" id="Fill_13"/>
<linearGradient gradientTransform="matrix(1 0 0 1 -162 -1659.48)" gradientUnits="userSpaceOnUse" id="LinearGradient_13" x1="1366.18" x2="6477.65" y1="2234.89" y2="2234.89">
<stop offset="0" stop-color="#256ea0"/>
<stop offset="1" stop-color="#1797d6"/>
</linearGradient>
<path d="M1935.46 773.754L1935.46 692.119L1963.31 692.119C1972.11 692.119 1978.54 690.779 1982.58 688.099C1986.63 685.419 1988.65 678.513 1988.65 667.381L1988.65 436.699C1988.65 425.773 1986.63 418.97 1982.58 416.29C1978.54 413.61 1972.11 412.271 1963.31 412.271L1935.46 412.271L1935.46 330.326L2338.82 330.326L2338.11 465.457L2245.3 465.457C2244.11 456.18 2242.21 447.11 2239.59 438.245C2236.73 429.793 2232.69 424.588 2227.45 422.63C2222.22 420.671 2213.05 419.692 2199.97 419.692L2141.43 419.692L2141.43 504.11L2241.02 504.11L2241.02 593.167L2141.43 593.167L2141.43 684.388L2197.11 684.388C2213.77 684.388 2225.25 682.533 2231.56 678.822C2237.86 675.112 2242.44 669.133 2245.3 660.887C2248.63 650.374 2250.77 642.231 2251.72 636.459L2346.32 636.459L2346.32 773.754L1935.46 773.754Z" id="Fill_14"/>
<linearGradient gradientTransform="matrix(1 0 0 1 -162 -1659.48)" gradientUnits="userSpaceOnUse" id="LinearGradient_14" x1="1366.18" x2="6477.65" y1="2234.89" y2="2234.89">
<stop offset="0" stop-color="#256ea0"/>
<stop offset="1" stop-color="#1797d6"/>
</linearGradient>
<path d="M1645.26 773.754L1645.26 692.119L1659.18 692.119C1667.99 692.119 1674.41 690.779 1678.46 688.099C1682.5 685.419 1684.52 678.513 1684.52 667.381L1685.59 513.387L1677.38 513.387L1588.15 704.797L1523.18 704.797L1428.94 516.789L1424.3 516.789L1424.3 667.381C1424.3 675.833 1425.91 682.069 1429.12 686.089C1432.34 690.109 1439.06 692.119 1449.29 692.119L1463.21 692.119L1463.21 773.754L1292.23 773.754L1292.23 692.119L1313.29 692.119C1322.81 692.119 1329.47 690.676 1333.28 687.79C1337.09 684.904 1338.99 678.101 1338.99 667.381L1338.99 437.627C1338.99 428.35 1337.62 421.805 1334.89 417.991C1332.15 414.177 1324.95 412.271 1313.29 412.271L1292.23 412.271L1292.23 330.326L1492.48 330.326L1578.51 504.11L1589.57 504.11L1670.96 330.326L1884.42 330.326L1884.42 412.271L1863.72 412.271C1851.82 412.271 1844.44 414.177 1841.58 417.991C1838.73 421.805 1837.3 428.35 1837.3 437.627L1837.3 667.381C1837.3 674.802 1838.43 680.368 1840.69 684.079C1842.95 687.79 1845.81 690.058 1849.26 690.882C1852.71 691.707 1857.53 692.119 1863.72 692.119L1884.42 692.119L1884.42 773.754L1645.26 773.754Z" id="Fill_15"/>
<linearGradient gradientTransform="matrix(1 0 0 1 -162 -1659.48)" gradientUnits="userSpaceOnUse" id="LinearGradient_15" x1="1366.18" x2="6477.65" y1="2234.89" y2="2234.89">
<stop offset="0" stop-color="#256ea0"/>
<stop offset="1" stop-color="#1797d6"/>
</linearGradient>
</defs>
<g id="Логотип">
<g opacity="1">
<use fill="#fd00fd" fill-rule="nonzero" opacity="0" stroke="none" xlink:href="#Fill"/>
<clipPath clip-rule="nonzero" id="ClipPath">
<use xlink:href="#Fill"/>
</clipPath>
<g clip-path="url(#ClipPath)">
<path d="M0-6.82294L1150.83-6.82294L1150.83 1144.01L0 1144.01L0-6.82294Z" fill="url(#LinearGradient)" fill-rule="nonzero" opacity="1" stroke="none"/>
</g>
</g>
<g opacity="1">
<use fill="#fd00fd" fill-rule="nonzero" opacity="0" stroke="none" xlink:href="#Fill_2"/>
<clipPath clip-rule="nonzero" id="ClipPath_2">
<use xlink:href="#Fill_2"/>
</clipPath>
<g clip-path="url(#ClipPath_2)">
<path d="M0-6.82294L1150.83-6.82294L1150.83 1144.01L0 1144.01L0-6.82294Z" fill="url(#LinearGradient_2)" fill-rule="nonzero" opacity="1" stroke="none"/>
</g>
</g>
<g opacity="1">
<use fill="#fd00fd" fill-rule="nonzero" opacity="0" stroke="none" xlink:href="#Fill_3"/>
<clipPath clip-rule="nonzero" id="ClipPath_3">
<use xlink:href="#Fill_3"/>
</clipPath>
<g clip-path="url(#ClipPath_3)">
<path d="M0-6.82294L1150.83-6.82294L1150.83 1144.01L0 1144.01L0-6.82294Z" fill="url(#LinearGradient_3)" fill-rule="nonzero" opacity="1" stroke="none"/>
</g>
</g>
<g opacity="1">
<use fill="#fd00fd" fill-rule="nonzero" opacity="0" stroke="none" xlink:href="#Fill_4"/>
<clipPath clip-rule="nonzero" id="ClipPath_4">
<use xlink:href="#Fill_4"/>
</clipPath>
<g clip-path="url(#ClipPath_4)">
<path d="M0-6.82294L1150.83-6.82294L1150.83 1144.01L0 1144.01L0-6.82294Z" fill="url(#LinearGradient_4)" fill-rule="nonzero" opacity="1" stroke="none"/>
</g>
</g>
<g opacity="1">
<use fill="#fd00fd" fill-rule="nonzero" opacity="0" stroke="none" xlink:href="#Fill_5"/>
<clipPath clip-rule="nonzero" id="ClipPath_5">
<use xlink:href="#Fill_5"/>
</clipPath>
<g clip-path="url(#ClipPath_5)">
<path d="M1204.18 0L6315.65 0L6315.65 1150.84L1204.18 1150.84L1204.18 0Z" fill="url(#LinearGradient_5)" fill-rule="nonzero" opacity="1" stroke="none"/>
</g>
</g>
<g opacity="1">
<use fill="#fd00fd" fill-rule="nonzero" opacity="0" stroke="none" xlink:href="#Fill_6"/>
<clipPath clip-rule="nonzero" id="ClipPath_6">
<use xlink:href="#Fill_6"/>
</clipPath>
<g clip-path="url(#ClipPath_6)">
<path d="M1204.18 0L6315.65 0L6315.65 1150.84L1204.18 1150.84L1204.18 0Z" fill="url(#LinearGradient_6)" fill-rule="nonzero" opacity="1" stroke="none"/>
</g>
</g>
<g opacity="1">
<use fill="#fd00fd" fill-rule="nonzero" opacity="0" stroke="none" xlink:href="#Fill_7"/>
<clipPath clip-rule="nonzero" id="ClipPath_7">
<use xlink:href="#Fill_7"/>
</clipPath>
<g clip-path="url(#ClipPath_7)">
<path d="M1204.18 0L6315.65 0L6315.65 1150.84L1204.18 1150.84L1204.18 0Z" fill="url(#LinearGradient_7)" fill-rule="nonzero" opacity="1" stroke="none"/>
</g>
</g>
<g opacity="1">
<use fill="#fd00fd" fill-rule="nonzero" opacity="0" stroke="none" xlink:href="#Fill_8"/>
<clipPath clip-rule="nonzero" id="ClipPath_8">
<use xlink:href="#Fill_8"/>
</clipPath>
<g clip-path="url(#ClipPath_8)">
<path d="M1204.18 0L6315.65 0L6315.65 1150.84L1204.18 1150.84L1204.18 0Z" fill="url(#LinearGradient_8)" fill-rule="nonzero" opacity="1" stroke="none"/>
</g>
</g>
<g opacity="1">
<use fill="#fd00fd" fill-rule="nonzero" opacity="0" stroke="none" xlink:href="#Fill_9"/>
<clipPath clip-rule="nonzero" id="ClipPath_9">
<use xlink:href="#Fill_9"/>
</clipPath>
<g clip-path="url(#ClipPath_9)">
<path d="M1204.18 0L6315.65 0L6315.65 1150.84L1204.18 1150.84L1204.18 0Z" fill="url(#LinearGradient_9)" fill-rule="nonzero" opacity="1" stroke="none"/>
</g>
</g>
<g opacity="1">
<use fill="#fd00fd" fill-rule="nonzero" opacity="0" stroke="none" xlink:href="#Fill_10"/>
<clipPath clip-rule="nonzero" id="ClipPath_10">
<use xlink:href="#Fill_10"/>
</clipPath>
<g clip-path="url(#ClipPath_10)">
<path d="M1204.18 0L6315.65 0L6315.65 1150.84L1204.18 1150.84L1204.18 0Z" fill="url(#LinearGradient_10)" fill-rule="nonzero" opacity="1" stroke="none"/>
</g>
</g>
<g opacity="1">
<use fill="#fd00fd" fill-rule="nonzero" opacity="0" stroke="none" xlink:href="#Fill_11"/>
<clipPath clip-rule="nonzero" id="ClipPath_11">
<use xlink:href="#Fill_11"/>
</clipPath>
<g clip-path="url(#ClipPath_11)">
<path d="M1204.18 0L6315.65 0L6315.65 1150.84L1204.18 1150.84L1204.18 0Z" fill="url(#LinearGradient_11)" fill-rule="nonzero" opacity="1" stroke="none"/>
</g>
</g>
<g opacity="1">
<use fill="#fd00fd" fill-rule="nonzero" opacity="0" stroke="none" xlink:href="#Fill_12"/>
<clipPath clip-rule="nonzero" id="ClipPath_12">
<use xlink:href="#Fill_12"/>
</clipPath>
<g clip-path="url(#ClipPath_12)">
<path d="M1204.18 0L6315.65 0L6315.65 1150.84L1204.18 1150.84L1204.18 0Z" fill="url(#LinearGradient_12)" fill-rule="nonzero" opacity="1" stroke="none"/>
</g>
</g>
<g opacity="1">
<use fill="#fd00fd" fill-rule="nonzero" opacity="0" stroke="none" xlink:href="#Fill_13"/>
<clipPath clip-rule="nonzero" id="ClipPath_13">
<use xlink:href="#Fill_13"/>
</clipPath>
<g clip-path="url(#ClipPath_13)">
<path d="M1204.18 0L6315.65 0L6315.65 1150.84L1204.18 1150.84L1204.18 0Z" fill="url(#LinearGradient_13)" fill-rule="nonzero" opacity="1" stroke="none"/>
</g>
</g>
<g opacity="1">
<use fill="#fd00fd" fill-rule="nonzero" opacity="0" stroke="none" xlink:href="#Fill_14"/>
<clipPath clip-rule="nonzero" id="ClipPath_14">
<use xlink:href="#Fill_14"/>
</clipPath>
<g clip-path="url(#ClipPath_14)">
<path d="M1204.18 0L6315.65 0L6315.65 1150.84L1204.18 1150.84L1204.18 0Z" fill="url(#LinearGradient_14)" fill-rule="nonzero" opacity="1" stroke="none"/>
</g>
</g>
<g opacity="1">
<use fill="#fd00fd" fill-rule="nonzero" opacity="0" stroke="none" xlink:href="#Fill_15"/>
<clipPath clip-rule="nonzero" id="ClipPath_15">
<use xlink:href="#Fill_15"/>
</clipPath>
<g clip-path="url(#ClipPath_15)">
<path d="M1204.18 0L6315.65 0L6315.65 1150.84L1204.18 1150.84L1204.18 0Z" fill="url(#LinearGradient_15)" fill-rule="nonzero" opacity="1" stroke="none"/>
</g>
</g>
</g>
</svg>
