<?xml version="1.0" encoding="utf-8"?>
<!-- Generator: Adobe Illustrator 26.0.1, SVG Export Plug-In . SVG Version: 6.00 Build 0)  -->
<svg version="1.1" id="Layer_1" xmlns="http://www.w3.org/2000/svg" xmlns:xlink="http://www.w3.org/1999/xlink" x="0px" y="0px"
	 viewBox="0 0 685.7 514.3" style="enable-background:new 0 0 685.7 514.3;" xml:space="preserve">
<style type="text/css">
	.st0{fill:#FDF5F2;}
	.st1{fill:#FFFFFF;}
</style>
<path class="st0" d="M646.5,135.5c0-0.1,0.1-0.2,0.1-0.3C646.6,135.3,646.5,135.4,646.5,135.5z"/>
<path class="st1" d="M0,0v114.3h0v57.1h0v342.9h314.3v-57.1H57.1V171.4h571.4v111.1h57.1V0H0z M57.1,114.3V57.1h571.4v57.1H57.1
	L57.1,114.3z"/>
<path class="st1" d="M85.7,314.3h171.4v57.1H85.7V314.3z M585.7,314.3h-59.6l36.9-36.9l-40.4-40.4L416.7,342.9l105.9,105.9
	l40.4-40.4l-36.9-36.9h59.6c23.6,0,42.9,19.2,42.9,42.9s-19.2,42.9-42.9,42.9H371.4v57.1h214.3c55.1,0,100-44.9,100-100
	S640.9,314.3,585.7,314.3z"/>
</svg>
